<svg width="32" height="32" viewBox="0 0 32 32" fill="none" xmlns="http://www.w3.org/2000/svg">
<path fill-rule="evenodd" clip-rule="evenodd" d="M18.0771 7.379C16.9163 6.26519 15.0837 6.26519 13.9229 7.379L7.75431 13.2981C7.60318 13.4431 7.50151 13.632 7.46373 13.8381C6.72489 17.8672 6.67035 21.9921 7.30241 26.0393L7.45244 27H11.421V18.7182C11.421 18.1659 11.8688 17.7182 12.421 17.7182H19.5789C20.1312 17.7182 20.5789 18.1659 20.5789 18.7182V27H24.5476L24.6976 26.0393C25.3296 21.9921 25.2751 17.8672 24.5363 13.8381C24.4985 13.632 24.3968 13.4431 24.2457 13.2981L18.0771 7.379ZM12.5382 5.93591C14.4728 4.07955 17.5272 4.07955 19.4618 5.93591L25.6304 11.855C26.0845 12.2907 26.3899 12.8583 26.5035 13.4773C27.2828 17.7275 27.3404 22.0786 26.6736 26.3479L26.4326 27.8912C26.3329 28.5295 25.7832 29 25.1372 29H19.5789C19.0267 29 18.5789 28.5523 18.5789 28V19.7182H13.421V28C13.421 28.5523 12.9733 29 12.421 29H6.86275C6.21677 29 5.66705 28.5295 5.56738 27.8912L5.32636 26.3479C4.65963 22.0786 4.71716 17.7275 5.49654 13.4773C5.61005 12.8583 5.91549 12.2907 6.36958 11.855L12.5382 5.93591Z" fill="black"/>
</svg>
