<svg width="32" height="32" viewBox="0 0 32 32" fill="none" xmlns="http://www.w3.org/2000/svg">
<path d="M8.57175 3.21737C8.9349 2.80127 8.89198 2.16956 8.47588 1.80641C8.05977 1.44326 7.42807 1.48619 7.06492 1.90229L5.34251 3.87585C4.36549 4.99532 3.81318 6.42268 3.7822 7.90821L3.70663 11.5318C3.69511 12.0839 4.13339 12.5409 4.68556 12.5524C5.23772 12.5639 5.69468 12.1256 5.70619 11.5735L5.78177 7.94992C5.80296 6.9335 6.18086 5.95689 6.84934 5.19093L8.57175 3.21737Z" fill="black"/>
<path fill-rule="evenodd" clip-rule="evenodd" d="M8.31602 10.2677C8.50122 7.30676 10.9567 5.00008 13.9234 5.00008H14.6667V4.00008C14.6667 3.2637 15.2636 2.66675 16 2.66675C16.7364 2.66675 17.3333 3.2637 17.3333 4.00008V5.00008H18.0765C21.0433 5.00008 23.4988 7.30677 23.684 10.2677L23.9786 14.979C24.091 16.7753 24.694 18.5063 25.7221 19.9835C26.651 21.3183 25.8241 23.1617 24.2095 23.3554L19.6667 23.9006V25.3334C19.6667 27.3585 18.025 29.0001 16 29.0001C13.975 29.0001 12.3333 27.3585 12.3333 25.3334V23.9006L7.7905 23.3554C6.17592 23.1617 5.34896 21.3183 6.27787 19.9835C7.30595 18.5063 7.909 16.7753 8.02135 14.979L8.31602 10.2677ZM13.9234 7.00008C12.0128 7.00008 10.4314 8.48564 10.3121 10.3926L10.0175 15.1039C9.88226 17.2654 9.15659 19.3484 7.91946 21.126C7.85232 21.2224 7.91209 21.3557 8.02879 21.3697L13.0123 21.9677C14.997 22.2059 17.003 22.2059 18.9877 21.9677L23.9712 21.3697C24.0879 21.3557 24.1477 21.2225 24.0805 21.126C22.8434 19.3484 22.1177 17.2654 21.9825 15.1039L21.6879 10.3926C21.5686 8.48564 19.9872 7.00008 18.0765 7.00008H13.9234ZM16 27.0001C15.0795 27.0001 14.3333 26.2539 14.3333 25.3334V24.3334H17.6667V25.3334C17.6667 26.2539 16.9205 27.0001 16 27.0001Z" fill="black"/>
<path d="M23.5241 1.80641C23.108 2.16956 23.0651 2.80127 23.4282 3.21737L25.1507 5.19093C25.8191 5.95689 26.197 6.9335 26.2182 7.94992L26.2938 11.5735C26.3053 12.1256 26.7623 12.5639 27.3144 12.5524C27.8666 12.5409 28.3049 12.0839 28.2934 11.5318L28.2178 7.90821C28.1868 6.42268 27.6345 4.99532 26.6575 3.87585L24.9351 1.90229C24.5719 1.48619 23.9402 1.44326 23.5241 1.80641Z" fill="black"/>
</svg>
