<svg width="32" height="32" viewBox="0 0 32 32" fill="none" xmlns="http://www.w3.org/2000/svg">
<path fill-rule="evenodd" clip-rule="evenodd" d="M13.8478 11.1425C13.5389 10.9571 13.1541 10.9523 12.8406 11.1298C12.5271 11.3073 12.3333 11.6397 12.3333 12V20C12.3333 20.3603 12.5271 20.6927 12.8406 20.8702C13.1541 21.0477 13.5389 21.0429 13.8478 20.8575L20.5145 16.8575C20.8157 16.6768 21 16.3513 21 16C21 15.6487 20.8157 15.3232 20.5145 15.1425L13.8478 11.1425ZM18.0564 16L14.3333 18.2338V13.7662L18.0564 16Z" fill="black"/>
<path fill-rule="evenodd" clip-rule="evenodd" d="M22.7076 6.18837C18.2427 5.83906 13.7574 5.83906 9.29251 6.18837L6.30491 6.42211C4.48816 6.56424 3.00191 7.92585 2.70159 9.72324C2.00724 13.8789 2.00724 18.1211 2.70159 22.2768C3.00191 24.0741 4.48816 25.4358 6.30491 25.5779L9.29251 25.8116C13.7574 26.1609 18.2427 26.1609 22.7076 25.8116L25.6952 25.5779C27.5119 25.4358 28.9982 24.0741 29.2985 22.2768C29.9928 18.1211 29.9928 13.8789 29.2985 9.72324C28.9982 7.92585 27.5119 6.56424 25.6952 6.42211L22.7076 6.18837ZM9.44851 8.18228C13.8095 7.8411 18.1905 7.8411 22.5516 8.18228L25.5392 8.41602C26.44 8.48649 27.1769 9.16163 27.3258 10.0528C27.9837 13.9903 27.9837 18.0097 27.3258 21.9472C27.1769 22.8384 26.44 23.5135 25.5392 23.584L22.5516 23.8177C18.1905 24.1589 13.8095 24.1589 9.44851 23.8177L6.46091 23.584C5.56009 23.5135 4.82315 22.8384 4.67425 21.9472C4.01636 18.0097 4.01636 13.9903 4.67425 10.0528C4.82315 9.16163 5.56009 8.48649 6.46091 8.41602L9.44851 8.18228Z" fill="black"/>
</svg>
